# xmcd
#
# Track frame offsets:
#	150
#	14715
#	29566
#	45968
#	62477
#	76206
#	93067
#	109506
#	127360
#	147444
#	166070
#	184697
#
# Disc length: 2683 seconds
#
# Revision: 0
# Processed by: cddbd v1.5.2PL0 Copyright (c) Steve Scherf et al.
# Submitted via: audiograbber 1.83.01
#
DISCID=970a790c
DTITLE=Tv2 - For Dig Ku Jeg Gøre Alting
DYEAR=2007
DGENRE=Pop
TTITLE0=For Dig Ku' Jeg gøre Alting
TTITLE1=Håbløst Fortabt I Dig
TTITLE2=Randers Station
TTITLE3=Hvis Du Går Ud Nu
TTITLE4=Mere Sympati På Gaderne
TTITLE5=Grib Mig
TTITLE6=Prinsessen Holder Fridag
TTITLE7=Jesus Fra Jylland
TTITLE8=Spodsbjerg-Tårs
TTITLE9=20 Sekunder Til Farvel
TTITLE10=Op Al DenTing
TTITLE11=S-O-M-M-E-R
EXTD=
EXTT0=
EXTT1=
EXTT2=
EXTT3=
EXTT4=
EXTT5=
EXTT6=
EXTT7=
EXTT8=
EXTT9=
EXTT10=
EXTT11=
PLAYORDER=
